<?xml version="1.0" encoding="UTF-8"?>
<svg id="Layer_2" data-name="Layer 2" xmlns="http://www.w3.org/2000/svg" viewBox="0 0 860.25 931.48">
  <defs>
    <style>
      .cls-1, .cls-2 {
        fill: #fdcd01;
      }

      .cls-3 {
        fill: #e7e7e7;
      }

      .cls-4 {
        fill: #fff;
      }

      .cls-5 {
        fill: #fcfbfc;
      }

      .cls-6 {
        fill: #9bd392;
      }

      .cls-7 {
        fill: #cecece;
      }

      .cls-8 {
        fill: #adcdc4;
      }

      .cls-9 {
        fill: #ca9837;
      }

      .cls-10 {
        fill: #e0e0e0;
      }

      .cls-11 {
        fill: #0f0d0c;
      }

      .cls-12 {
        fill: #292728;
      }

      .cls-2 {
        stroke: #0f0d0c;
        stroke-linecap: round;
        stroke-linejoin: round;
        stroke-width: 2.15px;
      }

      .cls-13 {
        fill: #754c24;
      }

      .cls-13, .cls-14, .cls-15 {
        stroke: #000;
        stroke-miterlimit: 10;
        stroke-width: .86px;
      }

      .cls-14 {
        fill: #b3b3b3;
      }

      .cls-15 {
        fill: #ccc;
      }
    </style>
  </defs>
  <g id="Layer_1-2" data-name="Layer 1">
    <g>
      <path class="cls-2" d="m157.19,779.74c2.51-2.63-17.83,16.52-13.89,32.93L2,929.41l111,1h33l11.19-150.67Z"/>
      <path class="cls-13" d="m831.03,823.77l-644.16-4.33s-23.34,0-24.12-24.89c-.78-24.89,1.56-754.47,1.56-754.47,0,0-3.11-32.46,24.12-33.54,27.23-1.08,641.83-4.33,641.83-4.33,0,0,29.56-1.08,29.56,36.79,0,37.87-4.67,752.31-4.67,752.31,0,0,4.67,32.46-24.12,32.46Z"/>
      <path class="cls-4" d="m177.61,20.06s-.03-1.48,1.76-1.36c1.79.12,47.6,4.2,133.69,2.93,86.08-1.27,473.07-5.05,505.76-7.72l11.83-.64s1.91-.34,2.01,1.77,0,20.62,0,20.62l.05,24.86v93.03l-.17,55.24.17,73.49v257.84l.55,34.63-.53,20.33.15,21.9.37,38.49v24.71l-.32,18.28.32,20.33v70.85s.89,1.82-3.06,2.14c-3.96.32-55.36,1.77-55.36,1.77l-326.76,1.53-75.47.46-142.81-2.17s-51.34-15.72-51.16-51.42-1.01-721.89-1.01-721.89Z"/>
      <g>
        <path class="cls-1" d="m129,931.41S.14,930.25,0,931.41c-.02.21,145-107,144.87-107.64-3.23-15.35,6.75-25.57,6.75-25.57.58-.28,2.02-10.26,2.39-10.79,3.12-4.48,9.68-9.39,12.72-13.92,1.88-2.8,16.45-23.05,17.96-26.07.68-1.37,1.63-2.39,2.91-3.19,5.99-3.72,11.94-7.5,17.96-11.16,7.92-4.8,14.25-10.99,18.28-19.27.49-1.01.77-1.97.47-3.05,1.44.22,2.19,1.22,2.69,2.54.38.99.88,1.93,1.39,2.85,1.79,3.22,2.29,6.66,2.28,10.27-.01,2.8-.38,5.59-.95,8.33-.97,4.66-2.1,9.48-4.82,13.35-4.38,6.25-8.86,12.6-16.36,15.93-1.91.85-3.61,2.21-5.92,1.45-.51-.17-1.1.02-1.24.61-.15.64.34.83.9.96,2.13.49,3.51,1.86,4.68,3.6,1.47,2.19,2.35,4.64,3.36,7.03,1.78,4.21,3.34,8.51,4.55,12.92,1.22,4.48,2.62,8.93,3.27,13.53.66,4.73,1.37,9.46,1.58,14.27.16,3.76-.1,7.42-.92,11.07-.63,2.8-.41,3.2,2.08,4.18-.24.85-1.11,1.95-.37,2.49.43.31,1.41-.92,1.98-1.69,1.31-1.77,2.31-3.68,3.2-5.67,2.22-4.95,3.5-10.07,3.36-15.48,1.17-.7.73-1.77.59-2.71-.16-1.05.13-1.61,1.29-1.63,1.37-.02,2.76-.24,4.09-.07,4.62.59,9.26,1.12,13.76,2.36,1.36.37,2.76.66,4.04,1.23,4.5,2,7.9,5.35,11,8.96,4.29,4.98,5.48,11,5.15,17.3-.15,2.98-1.21,5.86-2.47,8.63-2.8,6.17-6.26,11.74-12.77,14.93-4.19,2.05-8.3,4.19-12.76,5.69-3.68,1.25-7.44,2.18-11.23,2.86-2.72.49-5.47.98-8.26,1.2-2.78.21-5.52.87-8.28,1.34l-1.42-.1c-.31-.14-.64-.07-.98.08-.57,0-1.14.04-1.7,0-4.7-.25-9.31-1.1-13.94-1.81-1.13-.18-2.33-.65-3.46.12-2.4-.66-32.15,27.1-33.03,28.73-1.24,2.3-2.5,4.59-3.78,6.87-.35.62-24.98,24.04-25.88,24.12Z"/>
        <path class="cls-11" d="m228.96,813.32c.14,5.41-1.14,10.54-3.36,15.48-.89,1.99-1.89,3.9-3.2,5.67-.57.77-1.55,1.99-1.98,1.69-.75-.53.12-1.63.37-2.49,1.09-2.51,2.27-4.98,3.25-7.53,3.75-9.8,2.97-19.72.69-29.6-2.16-9.36-6.6-17.69-12.6-25.24-.74-.94-1.4-1.87.57-2.16.31-.05.46-.32.54-.6.99-3.31,3.73-5.22,6.38-7.01,4.47-3.01,8.53-6.47,11.99-10.49,4.04-4.7,6.33-10.35,7.63-16.29.98-4.46,1.52-9-.02-13.49-1.84-5.35-5.54-9.26-10.24-12.32-1.8-1.18-3.83-2.1-6.05-.67-1.43-.15-2.33.61-3.08,1.67-3.95,5.56-8.37,10.75-13.12,15.67-4.84,5.02-10.28,9.35-16.16,13.16-2.29,1.48-4.52,3.14-7.22,3.8-.98.24-1.45.63-1.81,1.45-3.48,7.97-20.89,32.66-26.21,39.5v-3.61c4.23-4.85,19.72-27.93,22.56-33.67.14-.29.15-.65.15-.98.11-10.55.2-21.09.31-31.64.05-5.37.15-10.73.18-16.1.03-5.85-.01-92.61-.02-98.45.04-10.69.1-21.38.13-32.07.02-9.84.03-19.68,0-29.52-.04-15.61-.07-31.22-.21-46.82-.05-5.99.1-11.99-.22-17.99-.15-2.83.11-5.74-.02-8.61-.03-7.97-.06-15.94-.1-23.92-.08-13.99-.22-27.99-.25-41.98-.02-8.75-.42-133.39-.28-142.15.1-6.63-.1-13.25-.14-19.88-.04-6.79-.09-13.57-.15-20.36-.06-6.01-.03-12.03-.21-18.03-.07-2.41-.01-4.83-.2-7.25-.28-3.67.04-7.39.11-11.08.37-4.89-.3-9.77-.07-14.67.19-4.22-.2-8.46,0-12.7.14-2.87-.13-5.73-.09-8.6.1-6.81-.06-13.63-.12-20.45.27-4.38.11-55,.04-59.38-.02-1.57-.02-3.15-.05-4.72-.13-6.75.2-13.5.06-20.25-.09-4.25.02-8.54.15-12.81.04-1.22.05-2.44.07-3.66.48-.59.19-1.19.05-1.79,0-.31,0-.62-.01-.93.77-.91,1.61-1.44,2.69-.44-.56.21-1.61-.56-1.59.81.04,3.09.05,6.19.08,9.28-.04,10.48-.09,20.97-.13,31.45-.02,3.5-.08,6.99-.04,10.49.06,4.02-.27,54.28.09,58.3-.02,3.55-.11,7.1-.04,10.65.07,3.71-.2,7.42.2,11.12-.28,1.04-.16,2.1-.15,3.15.06,13.94.12,27.88.21,41.82.1,16,.22,32,.35,48,.12,15.28.25,146.45.37,161.73.11,14.22.23,28.43.33,42.65.09,12.32.19,24.64.25,36.97.07,13.55.11,27.1.16,40.64.04,12.65.12,25.31.11,37.96,0,13.94-.06,27.88-.14,41.82-.09,15.16-.24,111.24-.37,126.4-.03,3.46-.05,6.92-.07,10.6,1.04-.75,1.17-2.05,2.47-2.04,1.07,0,1.97-.54,2.85-1.05,4.14-2.4,8.12-5.03,12.05-7.76,6.41-4.45,11.5-10.11,16.32-16.13,3.02-3.77,5.02-8.72,10.81-9.86,2.16-.43,4.13-.44,5.93.43,5.32,2.57,8.81,6.87,11.21,12.08,1.73,3.75,1.31,7.81,1.7,11.75-.41,3.59-.92,7.15-2.37,10.53-1.67,3.91-3.22,7.86-6,11.2-3.06,3.68-6.92,6.44-10.93,9.05-2.66,1.73-5.32,3.49-7.22,6.1-1.74,2.39-1.72,3.43-.13,5.77,3.36,4.94,6.75,9.85,8.7,15.57,1.37,4.01,1.5,3.98,5.84,4.06.68.01,1.37,0,2.05,0,4.06.1,8.11.21,12.17.31l.62.05c1.18.02,2.36.04,3.54.06.31.16.62.17.95.06.5,0,.99,0,1.49,0,.2.02.4.03.6.05.26,0,.52,0,.78,0,.81.14,1.62.22,2.44.06.57.12,1.15.21,1.73.06,1.43.07,2.86.17,4.29.2,15.31.34,30.62.71,45.93.97,11.9.21,23.8.3,35.7.4,8.19.07,16.37.12,24.56.12,14.03,0,28.06-.02,42.09-.09,6.87-.04,13.73-.23,20.6-.35.28.04.56.11.84.1,10.19-.13,20.38-.32,30.57-.4,14.66-.13,285.28-.8,299.94-1.06,23.08-.41,46.15-1.26,69.22-2.01,1.66-.05,2.03-.5,2.02-2.08-.07-11.88-.02-23.75-.04-35.63-.01-7.71-.08-15.43-.12-23.14,0-14.33.06-109.58-.09-123.91-.03-3.24-.08-6.49-.11-9.73-.04-4.28.22-8.58.2-12.87-.05-9.52-.08-19.04-.12-28.56,0-.36-.02-.72-.03-1.07.08-1.02.21-2.03-.02-3.04-.37-1.59.09-3.16.09-4.75-.03-12.71-.05-25.42-.07-38.13-.03-16.17-.04-32.33-.07-48.5-.03-13.49-.07-26.98-.09-40.47-.02-15.39-.02-146.67-.04-162.06-.02-14.38-.05-28.76-.06-43.15-.01-14.33,0-28.65,0-42.98,0-8.13.02-16.26.01-24.39,0-6.54-.04-13.09-.06-19.63.01-7.15.02-60.54.03-67.69.01-4.47.02-8.94.03-13.41-.01-.68-.03-1.37-.04-2.05.01-.34.02-.69.03-1.03.04-4.11.1-8.22.08-12.34-.02-5.14.11-10.28.06-15.42-.02-1.59-.62-1.76-2.19-1.66-13.66.84-27.33,1.64-41,2.34-14.87.76-30.72,1.03-45.59,1.67-12.53.54-280.06,1.44-292.6,1.87-15.91.54-31.82,1.05-47.73,1.44-15.23.37-30.45.59-45.68.84-7.55.13-15.11.19-22.66.28l-.08-.12c-.4-.67-1.02-.23-1.55-.29-.75-.08-.08-.3-.04-.46,4.74-.05,9.48-.08,14.21-.15,8.73-.13,17.47-.28,26.2-.42.4.17.81.17,1.22.02.22,0,.45,0,.67,0,2.09-.04,4.18-.07,6.28-.11l.6-.03c1.65-.03,3.31-.06,4.96-.08.2,0,.4,0,.59,0,1.99,0,3.98-.02,5.97-.03,5.16-.18,10.33-.36,15.49-.53.32.09.64.12.97.09l1.88-.16h1.71c.21,0,.41-.01.62-.02,2.21-.07,4.42-.13,6.62-.2.21-.01.42-.02.63-.03,1.05-.2,2.17.52,3.16-.27,1.45.15,2.91.14,4.37.12,6.6-.1,13.2-.53,19.8-.61,1.97-.02,4.09.37,6.02-.61l.44.02c.45.4.97.2,1.48.17,5.49-.18,10.98-.33,16.47-.56,7.66-.32,265.74-1.64,273.4-1.9,9.38-.32,24.91-.86,37.1-1.32,17.03-.94,30.63-1.02,47.65-2.01,1.05-.06,1.91.75,1.78,1.8s.21,1.63,1.5,1.32c1.24-.3,1.71.18,1.46,1.4-.24,1.16.09,1.58,1.38,1.11.91-.33,1.82-.2,1.82,1.1,0,.06.02.11.01.17-.23,1.62,1.82.34,1.94,1.43.1.96.01,1.96,1.57,1.63.84-.18.92.46.86,1.06-.11,1.05.29,1.53,1.43,1.43,1.02-.09,1.13.53,1.12,1.38-.05,8.08-.07,16.17-.09,24.25,0,.33.05.66.08,1,0,.45.01.9.02,1.35-.24.79-.13,1.57.01,2.35-.07.21-.21.42-.2.63.19,5.56.05,11.12,0,16.68-.07,7.29-.02,60.82.01,68.11.02,5.06-.19,10.13.08,15.18-.07.21-.21.42-.21.63.02,4.08.08,8.15.09,12.23.01,5.01-.02,10.02,0,15.02.01,6.01.05,12.02.08,18.04.13.6-.48,1.36.41,1.8l-.04.06c-.93.1-.37.78-.38,1.12-.06,5.93-.07,11.87-.07,17.8,0,6.61.04,13.22.06,19.82.01,4.78.03,9.56.04,14.34-.03.78-.1,1.56-.1,2.33.03,20.11.05,156.12.1,176.23.02,6.56.09,13.13.13,19.69-.02,5.96-.07,11.92-.06,17.88.02,19.29.07,38.59.11,57.88.02,7.81.05,15.61.07,23.42.04,18.52.06,37.03.1,55.55.03,13.33.08,107.56.11,120.89.03,12.02.04,24.04.05,36.06.01,12.01.03,24.02.04,36.03,0,2.02,0,2.02-2.58,2.25-.28-.12-.56-.13-.82.07-.28-.01-.56-.02-.84-.04-3.54.06-7.08.26-10.62.44-3.4.17-6.84.1-10.26.26-5.43.25-10.87.2-16.29.77-2.73.28-5.52-.1-8.26.13-2.93.25-5.87.16-8.8.34-2.86.18-5.74.07-8.61.12-1.36.03-2.71.1-4.07.13-4.17.09-8.33.48-12.5.56-21.72.43-299.41.8-321.14,1.21-6.7.12-13.4.16-20.1.49-4.56.23-9.12.07-13.68.26-5.1.22-10.21-.07-15.32-.05-4.16.01-8.33.34-12.48.18-3.99-.15-7.97-.04-11.96-.07-1.99-.01-3.99-.07-5.99-.06-2.9.02-7.65.08-10.55.05-3.48-.04-6.95-.01-10.43-.05-3.59-.04-7.18-.15-10.77-.19-3.82-.04-7.64,0-11.46-.05-3.42-.04-6.85-.15-10.27-.2-2.92-.05-5.88.23-8.74-.17-3.48-.49-4.04,1.79-5.17,4-1.13,2.22-2.9,4.1-4.66,5.89-2.76,2.79-5.47,5.64-8.7,7.94-1.7,1.21-1.01,2.98-1.05,4.49-.24,8.55-2.91,16.24-7.9,23.33-3.4,4.83-7.38,9.02-12.37,12.22-5.2,3.34-10.8,5.8-16.97,7.06-4.72.96-9.43,1.87-14.23,2.07-7.7.33-15.41.37-23.1-.23-.92-.07-1.23.17-1.74.81-3.47,4.39-7.91,7.87-11.7,12-2.71,2.94-33.02,33.19-36.21,35.68-.4.31-7.17,6.94-7.61,7.21h-3c1.2-.35,10.6-10.55,11.36-11.33,5.45-5.58,39.21-37.75,44-43.86.75-.95.34-1.15-.67-1.25-2.6-.27-5.18-.64-7.7-1.4-1.06-.32-1.58-.78-1.4-1.87,1.13-.77,2.33-.3,3.46-.12,4.63.72,9.24,1.56,13.94,1.81.56.03,1.13,0,1.7,0,.38.24.78.25,1.18.08l.71-.07c7.41.77,14.79.09,22.14-.67,5.45-.56,10.75-1.89,15.89-3.95,5.38-2.16,10.27-4.94,14.36-8.97,7.51-7.39,11.95-16.25,13.27-26.56.15-1.16.61-2.58.12-3.44-1.3-2.32.35-3.51,1.64-4.68,3.56-3.24,7.2-6.38,10.42-9.95,1.71-1.89,3.27-3.86,4.17-6.41-.67-.04-1.28-.09-1.9-.11-8.41-.19-16.82-.33-25.22-.57-12.46-.36-24.92-.79-37.39-1.22-.94-.03-1.31.11-1.22,1.17.15,1.75.07,3.52.09,5.28Zm616.53-77.75c.01-.2.03-.39.04-.59-.02-1.34-.04-2.68-.06-4.03-.03-.07-.03-.15,0-.22.19-3.9.13-7.8,0-11.69.01-.2.03-.4.04-.6,0-13.22.01-107.35,0-120.56-.02-13.55-.06-27.1-.09-40.66-.03-13.61-.05-27.22-.07-40.83-.03-15.39-.06-30.78-.09-46.18-.02-13.44-.04-26.88-.06-40.32-.03-16.23-.06-148.36-.07-164.59-.01-17.01,0-34.02,0-51.03,0-13.27-.04-26.55-.02-39.82.01-16.84.06-33.68.09-50.53.03-16.84.07-79.92.09-96.76,0-.51.44-1.37-.59-1.42-1.06-.06-.72.8-.72,1.34-.04,8.7-.08,17.4-.09,26.1-.03,14-.04,74.23-.05,88.23-.02,14.16-.04,28.33-.04,42.49,0,13.33.02,26.66.03,39.99,0,14.33-.02,28.67,0,43,.01,15.28.05,146.46.08,161.74.03,15.39.04,30.78.07,46.17.03,14.5.08,29,.11,43.5.03,16.34.06,32.68.09,49.02.03,15.56.07,112.03.11,127.59.02,7.86.07,15.72.1,23.58.01.22.02.45.03.67-.08,3.94-.27,7.89.14,11.82l-.04.05c-.38,1.32-.11,2.65-.11,3.98,0,.5-.32,1.07.29,1.45l.05.03c-.65.52-.38,1.23-.38,1.87,0,11.66,0,23.31.02,34.97.02,7.81.08,15.61.12,23.41.01.45.03.89.04,1.34-.04.94-.15,1.89-.1,2.83.05.91-.18,1.24-1.21,1.27-11.33.36-22.66.81-34,1.17-13.45.43-26.9.8-40.35,1.2-12.08.37-280.12.84-292.19,1.1-13.74.3-27.48.34-41.22.63-21.75.47-43.5.53-65.26.53-2.73,0-5.49-.36-8.21.26-.7-.06-1.4-.11-2.1-.17-.16-.04-.33-.11-.49-.11-14.37-.14-28.74-.21-43.1-.44-18.09-.3-36.17-.7-54.25-1.13-10.81-.26-21.62-.66-32.44-.98-.43-.01-1.14-.35-1.13.53,0,.68.05,1.4,1.08,1.32.23-.02.46,0,.69,0,8.07.25,16.13.49,24.2.75,20.19.65,40.39,1.1,60.6,1.37,15.4.21,30.8.37,46.2.44,13.11.06,26.23-.06,39.34-.08,15.75-.02,31.5-.41,47.25-.71,10.54-.2,21.07-.24,31.61-.49,12.66-.31,281.27-.77,293.93-1.16,9.27-.29,18.55-.57,27.82-.85l.88-.02c3.31-.1,6.62-.19,9.92-.31,10.73-.38,21.46-.8,32.18-1.12,1.33-.04,1.64-.49,1.57-1.64-.09-1.44-.07-2.88-.1-4.33.01-.42.02-.85.04-1.27.02-.22.04-.44.04-.66-.01-13.7-.02-27.39-.05-41.09-.02-6.12-.1-12.24-.15-18.37,0-.34,0-.68,0-1.02Zm-8.57-18.83c-.18.57-.12,1.13-.02,1.7-.19.45-.12.9-.02,1.35,0,1.12.01,2.25.02,3.37-.17,1.01-.15,2.02.02,3.03-.17.67-.18,1.35-.04,2.03-.02,5.05-.05,10.11-.05,15.16.01,8.22.05,16.44.08,24.66-.24.67-.11,1.34,0,2.01-.03.72-.08,1.45-.08,2.17,0,7.14,0,14.27.04,21.41,0,.92-.2,1.28-1.22,1.28-1.89,0-3.78.15-5.66.21-18.72.61-37.43,1.39-56.15,1.77-12.14.25-24.27.66-36.41.97-7.15.19-270.27.32-277.43.48-.2,0-.41-.02-.61-.03-.23-.01-.45-.05-.68-.04-12.98.19-25.95.41-38.93.57-10.52.13-21.03.19-31.55.28h-.1c-.64-.2-1.14.17-1.68.4-.25-.62-.74-.49-1.23-.38-9.39-.03-18.78-.02-28.17-.1-16.09-.14-32.17-.29-48.26-.51-20.09-.27-40.18-.76-60.26-1.36-4.91-.14-9.83-.2-14.75-.29-2.18-.11-4.35-.22-7.04-.35,1.02.88.38,2.21,1.85,2.19,1.81-.02,3.62.03,5.43.06,1.03.06,2.05.15,3.08.18,15.73.43,31.47.93,47.2,1.25,16.31.34,32.62.51,48.93.74,17.52.24,35.03.28,52.55.23l.74-.02c.79,0,1.58,0,2.37,0,.36-.01.72-.02,1.08-.04,1.31,0,2.63.01,3.94.02,18.14.1,36.28-.4,54.41-.64,14.48-.19,284.92-.33,299.39-.84,11.72-.41,23.45-.68,35.18-1.01.35-.01.7-.03,1.05-.04.86,0,1.71.03,2.57,0,10.58-.34,21.15-.68,31.73-1.03,6.4-.21,12.8-.47,19.2-.67.97-.03,1.45-.19,1.35-1.31-.14-1.49-.06-3-.07-4.5,0-.77,0-1.54,0-2.31-.03-6.21-.06-12.43-.08-18.64.23-.67.16-1.35.02-2.03.03-4.91.09-9.81.07-14.72-.02-8.47-.08-16.94-.12-25.42.18-.56.1-1.13,0-1.69.16-.9.17-1.8,0-2.7.01-.55.02-1.1.04-1.64,0-.24-.01-.48-.02-.72,0-.53-.02-1.05-.02-1.58h-.02c.02-.17.03-.33.05-.49,0-.32-.02-.65-.02-.97l-.02-1.01c.01-.2.03-.41.04-.61.05-2.49.16-4.99-.06-7.48,0-.21.01-.42.02-.63.03-.33.08-.66.08-.99-.02-11.6-.05-104.11-.07-115.71-.02-17.18-.03-34.36-.06-51.53-.03-18.18-.1-36.36-.13-54.54-.03-16.34-.03-32.68-.06-49.02-.02-16.34-.07-32.68-.09-49.02-.02-16.23-.03-148.36-.04-164.59,0-15.06-.02-30.12-.02-45.17,0-15.28.01-30.56.03-45.84.02-13.16.06-72.55.08-85.72.01-8.7.01-17.4.02-26.1,0-.68.12-1.33-.99-1.3-1.08.03-1,.66-1,1.34,0,3.51,0,7.03,0,10.54-.02,15.89-.05,78.02-.07,93.92-.02,15.11-.03,30.23-.04,45.34,0,14.16-.01,28.33,0,42.49,0,13.44.04,26.88.06,40.32.02,15.39.02,146.69.05,162.08.02,13.44.06,26.88.08,40.32.03,14.44.04,28.89.06,43.33.03,13.5.07,26.99.1,40.49.03,14.5.04,29,.06,43.5.02,12.72.03,106.34.07,119.06.02,5.01.11,10.02.17,15.03v.02Zm3.72,8.98c.13-1.77.14-3.54-.05-5.29-.21,0-.42,0-.63,0,.02,1.76.04,3.52.06,5.27-.04,1.67-.1,3.34-.1,5.01,0,15.45.02,30.9.05,46.35.01,6.19.09,12.38.14,18.56-.4.66.65,1.98-1.18,2.04-8.7.26-17.4.59-26.09.93-15.62.61-31.25.94-46.87,1.33-11.39.28-278.74.77-290.13,1-15.63.32-31.25.43-46.88.73-14.88.28-29.76.33-44.65.36-14.82.03-29.64-.07-44.46-.11-.25,0-.49-.01-.74-.02-9.03-.12-18.07-.25-27.1-.37-19.56-.27-39.11-.72-58.66-1.29-6.28-.18-12.57-.29-18.86-.43-1.88-.09-3.76-.2-5.64-.26-.38-.01-.99-.23-1,.52,0,.64.22,1.05.98,1.05,1.94,0,3.88.03,5.82.05.45.05.9.14,1.35.16,6.81.2,13.62.39,20.43.59,18.71.55,37.42.97,56.14,1.21,15.34.2,30.69.39,46.03.45,15,.06,30.01-.06,45.01-.06,11.63,0,23.25-.3,34.88-.48,12.54-.2,25.09-.29,37.63-.57,12.6-.28,281.16-.73,293.76-1.1,7.21-.21,14.43-.4,21.64-.6.32.01.64.02.97.04.23.01.45.04.68.03,14.85-.53,29.69-1.06,44.54-1.58,3.28-.12,3.28-.1,3.03-3.68.03-.67.08-1.33.08-2-.01-17.49-.02-34.98-.05-52.47,0-5.12-.08-10.24-.12-15.36Zm-397.58,69.53c-1.29.03-2.58.06-3.88.08-.58,0-1.15,0-1.73-.01-.46.02-.93.04-1.39.06-.23.01-.46.02-.69.03h-.65c-.17-.04-.33-.09-.5-.09-15.59.14-31.18.31-46.77.41-9.39.06-18.78.03-28.16-.02-13.45-.08-26.9-.21-40.35-.32-.25,0-.5,0-.75,0-.56-.01-1.12-.03-1.68-.04-.25,0-.5,0-.75,0-1.43-.05-2.86-.13-4.29-.15-20.32-.25-40.64-.76-60.95-1.3-5.95-.16-11.89-.5-17.85-.35-1.58-.1-3.16-.24-4.74-.26-.48,0-1.47-.49-1.4.49.05.76.03,1.94,1.32,1.99,1.81.07,3.63.05,5.45.06.4.05.79.14,1.19.15,7.55.21,15.1.39,22.64.6,21.21.59,42.42,1.02,63.64,1.28,15.51.19,31.01.29,46.52.34,14.25.04,28.5,0,42.76-.09,7.67-.05,15.34-.27,23-.41,1.44.17,2.87.05,4.31-.04.13,0,.26.01.39.02.38.07.76.1,1.13-.1.54.01,1.08.02,1.62.03,1.04-.01,2.07-.03,3.11-.04.35,0,.69,0,1.04,0,6.12-.09,12.23-.17,18.35-.26.46,0,.92-.02,1.38-.03,4.04.08,8.07.07,12.1-.18.23,0,.46.01.69.02,2.77-.09,261.5-.19,264.26-.28.23-.01.46-.02.69-.03.82.13,1.63.11,2.44-.05l.12.03.11-.05c.72-.02,1.44-.04,2.16-.07h.67c4.01-.12,8.01-.26,12.02-.33,24.97-.4,49.92-1.33,74.88-2.21.96-.03,1.12-.32,1.11-1.16-.05-4.57-.04-9.14-.04-13.72,0-13.44,0-26.88,0-40.31,0-8.58-.05-17.17-.08-25.75.06-.09.06-.18,0-.27-.01-2.95-.03-5.89-.04-8.84.01-4.01.04-8.03.03-12.04-.01-17.25-.03-115.4-.05-132.65-.02-16.34-.06-32.68-.09-49.02-.03-17.18-.05-34.35-.08-51.53-.03-14.44-.07-28.89-.09-43.33-.02-15.33-.03-146.57-.05-161.91-.02-15.22-.05-30.45-.06-45.67,0-16.17.01-32.34.02-48.51,0-16.84,0-79.92.02-96.76.02-14.95.07-29.89.09-44.84,0-.62.38-1.53-.94-1.5-1.3.03-.92.93-.93,1.54-.04,5.85-.03,11.71-.04,17.56-.01,13.22-.02,72.67-.03,85.88-.01,16.06-.03,32.12-.04,48.18,0,14.16.02,28.33.02,42.49,0,15.33,0,30.67.02,46,.01,14.44.05,144.79.07,159.23.02,15.34.05,30.67.07,46.01.03,15.39.07,30.78.1,46.17.03,16.28.05,32.57.08,48.85.02,12.72.04,25.43.08,38.15.02,6.3.09,93.51.13,99.81,0,.22,0,.44,0,.67-.07.48-.36,1.02.36,1.28l.02.04c-.64-.23-.44.29-.44.52,0,1.64.03,3.28.05,4.91,0,3.6,0,7.19.01,10.79-.06.1-.06.19.01.28,0,3.12-.03,6.24-.03,9.36,0,22.02,0,44.04.05,66.05,0,1.25-.29,1.69-1.68,1.73-16.42.48-32.84,1.07-49.27,1.55-14.13.42-28.27.73-42.41,1.1-6.46.17-268.89.34-275.36.52-.23-.01-.46-.03-.7-.04-.26,0-.51.01-.77.02l-.48.03c-3.39-.1-6.77-.07-10.16.14-.13,0-.26-.02-.39-.02-.45.01-.9.03-1.36.04-.23.01-.46.02-.69.03-.58-.15-1.16-.15-1.74-.03-.09-.06-.17-.05-.25.01-.6.01-1.19.03-1.79.04-.25,0-.5,0-.75-.01-.8.01-1.59.03-2.39.04-.21,0-.42-.01-.63-.02Zm-207.9,6.93c-1.99-.1-3.97-.2-5.96-.28-.46-.02-1.08-.19-1.04.66.03.74.41.91,1.09.92,1.99.01,3.98.07,5.97.12,8.81.29,17.61.65,26.42.85,18.08.42,36.16.78,54.24,1.11,19.74.37,39.49.46,59.24.46,16.49,0,32.97-.05,49.46-.34,16.09-.28,32.18-.45,48.26-.8,14.31-.32,284.59-.92,298.9-1.23,22.73-.49,45.45-1.37,68.17-2.2,3.32-.12,3.28-.13,3.27-3.47-.03-13.55,0-27.1-.03-40.65-.01-5.35-.1-10.7-.15-16.05.04-.44.12-.88.12-1.33-.03-19.02-.08-118.94-.11-137.96-.03-20.09-.05-40.19-.09-60.28,0-6.02-.05-12.05-.06-18.07-.04-25.65-.07-51.31-.12-76.96-.04-21.92-.11-159.73-.12-181.65-.02-20.63.02-41.27.02-61.9,0-20.69-.05-41.38-.03-62.07.02-21.25.1-88.73.16-109.98,0-2.29,0-4.57-.01-6.86,0-.44.1-.96-.63-.9-.55.04-.58.44-.55.85.01.22.01.45.01.67-.06,30.39-.14,107.02-.17,137.41-.02,20.69.02,41.38.03,62.07,0,19.8-.02,155.5,0,175.29.02,18.18.1,36.36.13,54.54.03,14.55.02,29.11.05,43.67.03,15.44.09,30.88.13,46.32.03,13.5.04,26.99.07,40.49.03,16.45.06,113.81.1,130.27.02,8.7.07,17.4.1,26.09-.01,10.26-.04,20.52-.03,30.77,0,8.87,0,17.73.08,26.6.01,1.28-.41,1.56-1.64,1.6-14.25.46-28.5,1.02-42.76,1.47-10.82.35-21.64.59-32.46.89-11.16.31-278.29.73-289.46.96-13.34.27-26.68.39-40.02.61-.62.01-1.4-.3-1.87.46-.49-.9-1.25-.33-1.9-.33-9.85.1-19.69.24-29.54.28-16.54.07-33.09.15-49.63.07-15.18-.07-30.37-.3-45.55-.57-15.79-.27-31.58-.66-47.37-1.02-8.24-.19-16.47-.41-24.7-.62Zm605.06-210.62c.64-.75.4-1.49.4-2.17-.02-16.23-.06-32.46-.1-48.7-.03-15.62-.05-31.24-.08-46.85-.02-13.33-.06-26.66-.08-39.99-.02-16.34-.04-32.68-.06-49.02-.02-13.5-.03-142.9-.04-156.39-.01-13.38-.02-26.77-.02-40.15,0-13.22-.01-26.44,0-39.65,0-13.21.04-26.43.05-39.64.02-12.32.03-70.88.04-83.2,0-7.81.03-15.62.01-23.43,0-.37.28-1.06-.37-1.08-.72-.01-.39.68-.39,1.05-.03,2.9-.02,5.8-.03,8.7-.03,15-.07,76.23-.09,91.23-.02,14.11-.01,28.22-.02,42.33,0,14.33-.03,28.66-.03,43,0,16,.03,32.01.05,48.01.02,19.24.02,154.38.05,173.62.03,17.07.09,34.13.12,51.2.03,18.18.04,36.36.07,54.54.03,18.24.09,36.48.15,54.72,0,.58-.23,1.21.36,1.88Zm.09,103.65c.33-3.72.48-88.35-.08-92.06-.39,3.72-.44,88.35.08,92.06Zm-.44-92.6h.76c-.01-3.66-.02-7.32-.03-10.97-.24,0-.49,0-.73,0,0,3.65,0,7.31,0,10.96Zm.76,92.5c-.24,0-.49.01-.73.02.07,2.84-.18,5.69.17,8.53.2,0,.4,0,.6-.01-.01-2.84-.03-5.69-.04-8.53Zm.05,16.57l-.75.02c0,2.75.01,5.5.02,8.25.24,0,.49,0,.73-.01,0-2.75,0-5.5,0-8.25Zm-.64-.25c.22,0,.43,0,.65,0-.01-2.62-.02-5.25-.04-7.87-.23,0-.45,0-.68,0-.07,2.62-.16,5.25.07,7.87Z"/>
        <path class="cls-1" d="m154.96,783.9c5.32-6.85,23.2-31.91,26.67-39.89.36-.82.83-1.2,1.81-1.45,2.7-.67,4.93-2.32,7.22-3.8,5.88-3.81,11.33-8.14,16.16-13.16,4.74-4.93,9.17-10.11,13.12-15.67.75-1.06,1.65-1.82,3.08-1.67-.2,1.15.52,1.83,1.3,2.49.3,1.08.02,2.04-.47,3.05-4.04,8.28-10.36,14.47-18.28,19.27-6.03,3.66-11.97,7.44-17.96,11.16-1.29.8-2.23,1.82-2.91,3.19-1.51,3.02-16.08,23.28-17.96,26.07-3.04,4.53-6.28,8.93-9.4,13.41-.37.53-1.78,1.04-2.37,1.32v-4.33Z"/>
        <path class="cls-9" d="m191.69,871.69c-.18,1.09.33,1.55,1.4,1.87,2.52.76,5.1,1.13,7.7,1.4,1.01.1,1.42.3.67,1.25-4.79,6.11-38.55,38.28-44,43.86-.76.78-10.25,10.99-11.45,11.35h-17c.89-.08,23.98-24.36,24.33-24.98,1.28-2.28,4.09-3.71,5.33-6.01.88-1.64,30.63-29.39,33.03-28.73Z"/>
        <path class="cls-12" d="m292.99,20.89c5.6.03,11.2.09,16.79.1,7.8.01,15.6,0,23.4-.01-.04.16-.71.38.04.46.53.06,1.15-.38,1.55.29-8.57.27-17.14.18-25.72.16-9.71-.02-19.43-.08-29.14-.12-10.98-.18-21.96-.37-32.93-.55-6.74-.15-13.47-.26-20.21-.46-12.5-.38-24.99-.81-37.49-1.21-.84-.09-1.68-.18-2.52-.28-.11-.24-.23-.48-.34-.73,3.83-.17,7.64.29,11.46.31,5.41.03,10.81.32,16.21.47,4.08.12,8.16.32,12.25.44,5.64.17,11.28.39,16.93.22,3.55-.11,7.11.39,10.68.42,9.26.07,18.52.3,27.79.43,3.75.06,7.51.05,11.26.07Z"/>
        <path class="cls-12" d="m179.77,19.01c-1.09-1-1.92-.46-2.69.44-.36-1.11.1-1.6,1.23-1.4,1.48.26,3.05-.31,4.46.46-.41.18-.82.36-1.24.54-.59-.02-1.17-.03-1.76-.05Z"/>
        <path class="cls-11" d="m181.53,19.06c.41-.18.82-.36,1.24-.54.59-.23,1.2-.21,1.81-.1.55.58,1.16.26,1.77.12,0,0,.06,0,.06,0,.11.24.23.48.34.73-1.74-.07-3.48-.14-5.22-.21Z"/>
        <path class="cls-12" d="m186.34,18.54c-.6.14-1.22.46-1.77-.12.59-.03,1.2-.21,1.77.12Z"/>
        <path class="cls-12" d="m177.09,20.38c.14.6.42,1.21-.05,1.79-.12-.6-.23-1.2.05-1.79Z"/>
        <path class="cls-6" d="m842.78,804.85c.28.01.56.02.84.04-.29.29-.59.61-.84-.04Z"/>
        <path class="cls-9" d="m229.05,813.3c-.02-1.76.05-3.53-.09-5.28-.09-1.06.29-1.2,1.22-1.17,12.46.43,24.92.86,37.39,1.22,8.4.24,16.81.38,25.22.57.62.01,1.23.07,1.9.11-.9,2.56-2.46,4.52-4.17,6.41-3.22,3.57-6.86,6.72-10.42,9.95-1.29,1.17-2.94,2.36-1.64,4.68.49.87.02,2.29-.12,3.44-1.32,10.3-5.76,19.16-13.27,26.56-4.09,4.03-8.98,6.81-14.36,8.97-5.14,2.06-10.44,3.38-15.89,3.95-7.24.75-14.51,1.42-21.8.71,2.82-.47,5.62-1.15,8.45-1.37,2.79-.22,5.54-.7,8.26-1.2,3.8-.68,7.55-1.61,11.23-2.86,4.45-1.51,8.57-3.65,12.76-5.69,6.51-3.19,9.97-8.76,12.77-14.93,1.26-2.78,2.32-5.66,2.47-8.63.33-6.3-.86-12.32-5.15-17.3-3.1-3.61-6.5-6.96-11-8.96-1.27-.57-2.68-.85-4.04-1.23-4.5-1.24-9.14-1.77-13.76-2.36-1.34-.17-2.73.05-4.09.07-1.15.02-1.45.57-1.29,1.63.14.94.58,2.01-.59,2.71Z"/>
        <path class="cls-9" d="m224.32,710.75c-.78-.66-1.5-1.34-1.3-2.49,2.22-1.43,4.25-.51,6.05.67,4.69,3.06,8.4,6.97,10.24,12.32,1.54,4.49,1,9.03.02,13.49-1.3,5.94-3.59,11.59-7.63,16.29-3.46,4.02-7.52,7.47-11.99,10.49-2.65,1.79-5.39,3.7-6.38,7.01-.08.28-.23.55-.54.6-1.97.29-1.32,1.23-.57,2.16,6,7.56,10.44,15.88,12.6,25.24,2.28,9.88,3.06,19.8-.69,29.6-.97,2.55-2.16,5.02-3.25,7.53-2.49-.98-2.71-1.39-2.08-4.18.82-3.66,1.08-7.32.92-11.07-.21-4.8-.92-9.53-1.58-14.27-.62-4.44-1.95-8.75-3.14-13.08-1.25-4.55-2.82-8.98-4.65-13.33-1.01-2.4-1.9-4.86-3.38-7.07-1.16-1.74-2.55-3.1-4.68-3.6-.56-.13-1.05-.32-.9-.96.14-.59.72-.78,1.24-.61,2.31.76,4-.6,5.92-1.45,7.5-3.33,11.98-9.68,16.36-15.93,2.49-3.55,3.64-7.88,4.56-12.15.72-3.33,1.24-6.65,1.2-10.07-.03-3.15-.5-6.17-1.9-9.02-.67-1.35-1.34-2.7-1.98-4.07-.5-1.08-1.23-1.86-2.48-2.05Z"/>
        <path class="cls-9" d="m212,873.44c-.42.18-.83.18-1.22-.07.42-.19.83-.25,1.22.07Z"/>
        <path class="cls-3" d="m837.01,716.7c-.06-5.01-.15-10.02-.17-15.03-.04-12.72-.05-106.34-.07-119.06-.02-14.5-.04-29-.06-43.5-.03-13.5-.07-26.99-.1-40.49-.03-14.44-.04-28.89-.06-43.33-.02-13.44-.06-26.88-.08-40.32-.02-15.39-.03-146.69-.05-162.08-.02-13.44-.05-26.88-.06-40.32,0-14.16,0-28.33,0-42.49,0-15.11.02-30.23.04-45.34.02-15.89.05-78.02.07-93.92,0-3.51,0-7.03,0-10.54,0-.68-.08-1.31,1-1.34,1.11-.03.99.62.99,1.3,0,8.7,0,17.4-.02,26.1-.02,13.16-.06,72.55-.08,85.72-.02,15.28-.03,30.56-.03,45.84,0,15.06.01,30.12.02,45.17.01,16.23.01,148.36.04,164.59.02,16.34.07,32.68.09,49.02.02,16.34.03,32.68.06,49.02.03,18.18.1,36.36.13,54.54.03,17.18.03,34.36.06,51.53.02,11.6.05,104.11.07,115.71,0,.33-.05.66-.08.99-.33.09-.92-.12-.87.44.04.37.54.19.85.19.21,2.49.11,4.98.06,7.48-.58.04-1.17.08-1.75.13Z"/>
        <path class="cls-3" d="m833.92,696.21c-.04-6.3-.11-93.51-.13-99.81-.04-12.71-.06-25.43-.08-38.15-.03-16.28-.05-32.57-.08-48.85-.03-15.39-.07-30.78-.1-46.17-.03-15.34-.05-30.67-.07-46.01-.02-14.44-.05-144.79-.07-159.23-.02-15.33-.02-30.67-.02-46,0-14.16-.03-28.33-.02-42.49,0-16.06.02-32.12.04-48.18.01-13.22.02-72.67.03-85.88,0-5.85,0-11.71.04-17.56,0-.61-.38-1.52.93-1.54,1.32-.03.94.89.94,1.5-.01,14.95-.07,29.89-.09,44.84-.02,16.84-.02,79.92-.02,96.76,0,16.17-.03,32.34-.02,48.51,0,15.22.04,30.45.06,45.67.02,15.33.02,146.57.05,161.91.02,14.44.07,28.89.09,43.33.03,17.18.05,34.35.08,51.53.03,16.34.06,32.68.09,49.02.02,17.25.04,115.4.05,132.65,0,4.01-.02,8.03-.03,12.04-.68.27-1.07-.46-1.67-.47-.02-1.64-.05-3.28-.05-4.91,0-.23-.19-.75.44-.52.07-.07.15-.14.22-.2-.08.05-.16.11-.24.16-.72-.27-.42-.81-.36-1.28.25-.08.6-.08.53-.44-.02-.11-.35-.15-.53-.23Z"/>
        <path class="cls-10" d="m388.33,799.11c10.52-.09,21.03-.15,31.55-.28,12.98-.16,25.95-.38,38.93-.57.23,0,.45.03.68.04.08.33-.16.92.42.88.38-.03.17-.55.19-.85,7.15-.16,270.27-.3,277.43-.48,12.14-.31,24.27-.73,36.41-.97,18.72-.38,37.43-1.16,56.15-1.77,1.89-.06,3.78-.22,5.66-.21,1.01,0,1.22-.36,1.22-1.28-.04-7.14-.04-14.27-.04-21.41,0-.72.05-1.45.08-2.17.59.04,1.18.07,1.76.11.03,6.21.06,12.43.08,18.64-.4-.07-.8-.14-1.29-.23.31,1.01-.21,2.25,1.28,2.54.01,1.5-.06,3.01.07,4.5.1,1.12-.38,1.28-1.35,1.31-6.4.2-12.8.45-19.2.67-10.58.35-21.15.7-31.73,1.03-.86.03-1.71,0-2.57,0-.14-.42.06-1.16-.62-1.12-.75.04-.38.73-.43,1.16-11.73.33-23.45.6-35.18,1.01-14.47.51-284.92.65-299.39.84-18.14.24-36.27.74-54.41.64-1.31,0-2.63-.01-3.94-.02-.38-.73-.74-.76-1.08.04-.79,0-1.58,0-2.37,0-.26-.56-.51-.68-.74.02-17.52.05-35.04.02-52.55-.23-16.31-.23-32.62-.4-48.93-.74-15.74-.32-31.47-.82-47.2-1.25-1.03-.03-2.05-.12-3.08-.18-.08-.63-.16-1.27-.25-1.9,4.92.1,9.83.15,14.75.29,20.08.59,40.17,1.09,60.26,1.36,16.09.22,32.17.37,48.26.51,9.39.08,18.78.07,28.17.1.22.68.72.54,1.23.38.54-.23,1.04-.6,1.68-.4.03.09.05.19.08.28,0-.09.02-.19.02-.28Zm368.23-.4c.1-.16.17-.28.24-.4-.13-.06-.27-.19-.38-.17-.11.02-.18.2-.27.31.12.08.24.15.41.26Zm24.85-1.24l.13.03s.02-.07.03-.11c-.04,0-.09-.03-.13-.02-.01,0-.02.07-.03.11Z"/>
        <path class="cls-10" d="m801.24,805.37c-9.27.28-18.55.57-27.82.85-12.65.39-281.27.85-293.93,1.16-10.53.26-21.07.29-31.61.49-15.75.3-31.5.69-47.25.71-13.11.01-26.23.13-39.34.08-15.4-.07-30.8-.23-46.2-.44-20.21-.27-40.41-.72-60.6-1.37-8.07-.26-16.13-.5-24.2-.75-.23,0-.46-.02-.69,0-1.03.08-1.07-.64-1.08-1.32,0-.88.7-.54,1.13-.53,10.81.32,21.62.72,32.44.98,18.08.43,36.17.83,54.25,1.13,14.37.24,28.74.3,43.1.44.17,0,.33.07.49.11.59,1.25,1.13,1.29,2.1.17,2.72-.62,5.47-.26,8.21-.26,21.75,0,43.5-.07,65.26-.53,13.74-.29,27.48-.33,41.22-.63,12.08-.26,280.12-.73,292.19-1.1,13.45-.41,26.9-.77,40.35-1.2,11.33-.36,22.66-.81,34-1.17,1.03-.03,1.26-.37,1.21-1.27-.05-.94.06-1.89.1-2.83.37-.04.74-.08,1.11-.13.03,1.44,0,2.89.1,4.33.07,1.15-.24,1.6-1.57,1.64-10.73.32-21.46.74-32.18,1.12-3.31.12-6.62.2-9.92.31-.02-.43.21-1.11-.55-1.03-.62.06-.33.65-.32,1.04Zm-10.42-.64c-.16-.07-.27-.15-.35-.13-.15.03-.3.11-.44.17.1.04.2.13.29.12.15-.02.3-.09.51-.16Z"/>
        <path class="cls-10" d="m433.95,804.34c.47-.76,1.25-.45,1.87-.46,13.34-.22,26.68-.34,40.02-.61,11.16-.23,278.29-.64,289.46-.96,10.82-.3,21.64-.54,32.46-.89,14.25-.46,28.5-1.01,42.76-1.47,1.22-.04,1.65-.32,1.64-1.6-.08-8.86-.08-17.73-.08-26.6,0-10.26.02-20.52.03-30.77.33.1.65.19.98.29.05,5.35.14,10.7.15,16.05.03,13.55,0,27.1.03,40.65,0,3.34.05,3.35-3.27,3.47-22.72.83-45.44,1.71-68.17,2.2-14.31.31-284.59.91-298.9,1.23-16.09.36-32.17.52-48.26.8-16.49.29-32.97.33-49.46.34-19.75,0-39.5-.09-59.24-.46-18.08-.34-36.16-.69-54.24-1.11-8.81-.2-17.61-.56-26.42-.85-.02-.47-.04-.95-.06-1.42,8.23.21,16.47.43,24.7.62,15.79.36,31.58.75,47.37,1.02,15.18.26,30.36.49,45.55.57,16.54.08,33.08,0,49.63-.07,9.85-.04,19.69-.19,29.54-.28.47.96,1.24.38,1.9.33Z"/>
        <path class="cls-3" d="m844.43,718.5c-.03-7.86-.08-15.72-.1-23.58-.04-15.56-.08-112.03-.11-127.59-.03-16.34-.05-32.68-.09-49.02-.03-14.5-.08-29-.11-43.5-.03-15.39-.04-30.78-.07-46.17-.03-15.28-.07-146.46-.08-161.74-.01-14.33.01-28.67,0-43,0-13.33-.03-26.66-.03-39.99,0-14.16.03-28.33.04-42.49.02-14,.03-74.23.05-88.23.02-8.7.05-17.4.09-26.1,0-.54-.33-1.39.72-1.34,1.03.06.59.92.59,1.42-.01,16.84-.05,79.92-.09,96.76-.03,16.84-.08,33.68-.09,50.53-.01,13.27.02,26.55.02,39.82,0,17.01-.01,34.02,0,51.03.01,16.23.05,148.36.07,164.59.02,13.44.04,26.88.06,40.32.03,15.39.06,30.78.09,46.18.03,13.61.04,27.22.07,40.83.03,13.55.07,27.1.09,40.66.02,13.22,0,107.35,0,120.56-.39.02-.78.05-1.17.07Z"/>
        <path class="cls-3" d="m843.08,741.27c-.33-.1-.65-.19-.98-.29-.03-8.7-.08-17.4-.1-26.09-.04-16.45-.07-113.81-.1-130.27-.02-13.5-.04-26.99-.07-40.49-.04-15.44-.1-30.88-.13-46.32-.03-14.55-.02-29.11-.05-43.67-.04-18.18-.11-36.36-.13-54.54-.02-19.8,0-155.5,0-175.29,0-20.69-.05-41.38-.03-62.07.03-30.39.11-107.02.17-137.41,0-.22,0-.45-.01-.67-.03-.42,0-.81.55-.85.73-.06.63.47.63.9,0,2.29.02,4.57.01,6.86-.05,21.25-.13,88.73-.16,109.98-.02,20.69.03,41.38.03,62.07,0,20.63-.04,41.27-.02,61.9.02,21.92.09,159.73.12,181.65.04,25.65.07,51.31.12,76.96,0,6.02.05,12.05.06,18.07.03,20.09.05,40.19.09,60.28.03,19.02.08,118.94.11,137.96,0,.44-.08.88-.12,1.33Z"/>
        <path class="cls-10" d="m840.83,795.54c.25,3.58.25,3.57-3.03,3.68-14.85.52-29.69,1.05-44.54,1.58-.23,0-.45-.02-.68-.03-.02-.32-.05-.68-.47-.7-.43-.02-.48.33-.5.66-7.21.2-14.43.39-21.64.6-12.6.37-281.16.82-293.76,1.1-12.54.28-25.08.37-37.63.57-11.63.19-23.25.49-34.88.48-15,0-30.01.12-45.01.06-15.34-.06-30.69-.25-46.03-.45-18.72-.25-37.43-.66-56.14-1.21-6.81-.2-13.62-.39-20.43-.59-.45-.01-.9-.1-1.35-.16-.05-.45-.11-.91-.16-1.36,6.29.14,12.57.25,18.86.43,19.55.57,39.1,1.01,58.66,1.29,9.03.13,18.07.25,27.1.37.23.52.47.74.74.02,14.82.04,29.64.14,44.46.11,14.88-.03,29.76-.08,44.65-.36,15.63-.3,31.25-.41,46.88-.73,11.39-.23,278.74-.72,290.13-1,15.63-.39,31.25-.72,46.87-1.33,8.7-.34,17.4-.67,26.09-.93,1.82-.05.77-1.37,1.18-2.04.21-.02.42-.05.62-.07Z"/>
        <path class="cls-3" d="m433.16,797.71c-7.67.14-15.34.37-23,.41-14.25.09-28.5.14-42.76.09-15.51-.04-31.02-.15-46.52-.34-21.22-.26-42.43-.69-63.64-1.28-7.55-.21-15.1-.4-22.64-.6-.4-.01-.79-.1-1.19-.15,0-.82-.35-1.54-.63-2.28,5.96-.15,11.9.19,17.85.35,20.31.54,40.63,1.05,60.95,1.3,1.43.02,2.86.1,4.29.15.25.58.5.67.75,0,.56.01,1.12.03,1.68.04.25.57.5.66.75,0,13.45.11,26.9.24,40.35.32,9.39.05,18.78.08,28.16.02,15.59-.1,31.18-.27,46.77-.41.17,0,.33.05.5.08-.48.82-2.36.69-1.66,2.31Z"/>
        <path class="cls-10" d="m833.9,703.63c.6,0,.98.74,1.67.47.01,2.95.03,5.89.04,8.84-.09.05-.19.09-.28.14.1.04.19.08.29.12.03,8.58.07,17.17.08,25.75.01,13.44,0,26.88,0,40.31,0,4.57,0,9.14.04,13.72,0,.84-.16,1.13-1.11,1.16-24.96.88-49.91,1.81-74.88,2.21-4.01.06-8.01.21-12.02.32-.06-.24,0-.62-.37-.61-.4,0-.27.38-.3.62-.72.02-1.44.04-2.16.07-.04-.1-.09-.19-.13-.29-.03.1-.07.2-.1.3-.81.16-1.63.18-2.44.05-.06-.21-.1-.47-.38-.46-.29.01-.29.28-.31.49-2.77.09-261.5.19-264.26.28-.07-.23-.02-.59-.37-.6-.39-.01-.29.34-.32.58-4.03.25-8.07.26-12.1.18-.24-.77-.47-1.53-.71-2.3.26,0,.51-.01.77-.02.07.23.03.58.36.6.39.02.3-.32.34-.55,6.46-.17,268.89-.35,275.36-.52,14.14-.37,28.27-.68,42.41-1.1,16.42-.48,32.84-1.07,49.27-1.55,1.38-.04,1.68-.47,1.68-1.73-.04-22.02-.05-44.04-.05-66.05,0-3.12.02-6.24.03-9.36.09-.05.18-.1.27-.15-.1-.04-.19-.08-.29-.13,0-3.6,0-7.19-.01-10.79Zm-73.41,91.75c-.09-.05-.16-.1-.25-.13-.04-.01-.1.03-.15.05.03.07.08.19.1.19.1-.01.19-.07.3-.11Z"/>
        <path class="cls-10" d="m840.31,591.55c-.59-.67-.36-1.3-.36-1.88-.06-18.24-.11-36.48-.15-54.72-.03-18.18-.04-36.36-.07-54.54-.03-17.07-.09-34.13-.12-51.2-.03-19.24-.03-154.38-.05-173.62-.02-16-.04-32.01-.05-48.01,0-14.33.02-28.66.03-43,0-14.11,0-28.22.02-42.33.02-15,.06-76.23.09-91.23,0-2.9,0-5.8.03-8.7,0-.37-.33-1.07.39-1.05.65.01.37.7.37,1.08.01,7.81,0,15.62-.01,23.43-.01,12.32-.03,70.88-.04,83.2-.02,13.21-.05,26.43-.05,39.64,0,13.22,0,26.44,0,39.65,0,13.38,0,26.77.02,40.15.01,13.5.03,142.9.04,156.39.02,16.34.03,32.68.06,49.02.02,13.33.05,26.66.08,39.99.03,15.62.05,31.24.08,46.85.03,16.23.07,32.46.1,48.7,0,.68.24,1.42-.4,2.17Z"/>
        <path class="cls-10" d="m844.55,796.75c-.04-7.8-.1-15.61-.12-23.41-.02-11.66-.02-23.31-.02-34.97,0-.64-.27-1.35.39-1.87.26.03.52.05.78.07.05,6.12.13,12.24.15,18.37.03,13.7.04,27.39.05,41.09,0,.22-.03.44-.04.66-.39.02-.79.04-1.18.06Z"/>
        <path class="cls-10" d="m837,768.03c-.03-8.22-.07-16.44-.08-24.66,0-5.05.03-10.11.05-15.16.59-.07,1.18-.15,1.77-.22.04,8.47.1,16.94.12,25.42.01,4.9-.05,9.81-.07,14.72-.6-.03-1.2-.06-1.79-.1Z"/>
        <path class="cls-10" d="m433.16,797.71c-.7-1.62,1.18-1.49,1.66-2.31h.65c.08.24.11.56.45.47.11-.03.16-.32.24-.49.46-.02.93-.04,1.39-.06.56,1.16,1.14,1.06,1.73.01,1.29-.03,2.58-.06,3.88-.08.07.34-.14.94.35.92.57-.01.22-.58.27-.91.8-.01,1.59-.03,2.39-.04.24.44.49.56.75.01.6-.01,1.19-.03,1.79-.04.05.09.09.19.14.28l.12-.29c.58-.12,1.17-.13,1.74.03.06.21.1.47.38.46.29-.01.29-.28.31-.49.45-.01.9-.03,1.36-.04.12.22.24.36.39.02,3.38-.21,6.77-.24,10.16-.14-.06.77-.13,1.53-.19,2.3-6.12.09-12.23.17-18.35.26-.08-.36-.06-.85-.63-.77-.44.06-.41.45-.41.78-1.04.01-2.07.03-3.11.04-.5-1.34-1.07-.45-1.62-.03-.36.19-.74.17-1.13.1-.12-.25-.24-.37-.39-.02-1.44.1-2.87.22-4.31.04Z"/>
        <path class="cls-7" d="m840.83,795.54c-.21.02-.42.05-.62.07-.05-6.19-.13-12.38-.14-18.56-.03-15.45-.04-30.9-.05-46.35,0-1.67.07-3.34.1-5.01.21,0,.41.01.62.02.04,5.12.11,10.24.12,15.36.03,17.49.04,34.98.05,52.47,0,.67-.05,1.33-.08,2Z"/>
        <path class="cls-8" d="m232.77,793.57c.28.74.64,1.46.63,2.28-1.82-.02-3.63,0-5.45-.06-1.3-.05-1.27-1.23-1.32-1.99-.07-.98.92-.5,1.4-.49,1.58.02,3.16.17,4.74.26Z"/>
        <path class="cls-3" d="m844.6,731c-.41-3.94-.22-7.88-.14-11.83.37-.05.73-.1,1.1-.15.12,3.9.18,7.79,0,11.69-.32.09-.63.19-.95.28Z"/>
        <path class="cls-8" d="m233.88,796.87c.08.63.16,1.27.25,1.9-1.81-.02-3.62-.08-5.43-.06-1.47.02-.84-1.31-1.85-2.19,2.68.13,4.86.24,7.04.35Z"/>
        <path class="cls-8" d="m235.25,802.17c.02.47.04.95.06,1.42-1.99-.04-3.98-.1-5.97-.12-.68,0-1.06-.18-1.09-.92-.03-.86.58-.68,1.04-.66,1.99.08,3.98.18,5.96.28Z"/>
        <path class="cls-8" d="m234.58,799.78c.05.45.11.91.16,1.36-1.94-.02-3.88-.05-5.82-.05-.76,0-.99-.41-.98-1.05,0-.75.62-.53,1-.52,1.88.06,3.76.17,5.64.26Z"/>
        <path class="cls-10" d="m840.4,695.2c-.52-3.71-.47-88.33-.08-92.06.56,3.7.41,88.34.08,92.06Z"/>
        <path class="cls-10" d="m839.96,602.61c0-3.65,0-7.31,0-10.96.24,0,.49,0,.73,0,.01,3.66.02,7.32.03,10.97h-.76Z"/>
        <path class="cls-10" d="m840.72,695.11c.01,2.84.03,5.69.04,8.53-.2,0-.4,0-.6.01-.35-2.84-.1-5.69-.17-8.53.24,0,.49-.01.73-.02Z"/>
        <path class="cls-10" d="m840.77,711.68c0,2.75,0,5.5,0,8.25-.24,0-.49,0-.73.01,0-2.75-.01-5.5-.02-8.25l.75-.02Z"/>
        <path class="cls-10" d="m840.12,711.43c-.23-2.62-.14-5.25-.07-7.87.23,0,.45,0,.68,0,.01,2.62.02,5.25.04,7.87-.22,0-.43,0-.65,0Z"/>
        <path class="cls-3" d="m838.73,719.66c0,.53.02,1.05.02,1.58-.28.1-.77,0-.69.48.05.33.45.22.71.25-.01.55-.02,1.1-.04,1.64-.59-.15-1.17-.3-1.76-.45,0-1.12-.01-2.25-.02-3.37.59-.04,1.18-.08,1.77-.12Z"/>
        <path class="cls-10" d="m836.98,723.15c.59.15,1.17.3,1.76.45.17.9.16,1.8,0,2.7-.58-.04-1.16-.08-1.73-.12-.18-1.01-.19-2.02-.02-3.03Z"/>
        <path class="cls-3" d="m845.56,730.94c.02,1.34.04,2.68.06,4.03-.39.02-.78.04-1.17.06,0-1.33-.26-2.66.11-3.98.33-.04.66-.07.99-.11Z"/>
        <path class="cls-10" d="m840.73,725.71c-.21,0-.41-.01-.62-.02-.02-1.76-.04-3.52-.06-5.27.21,0,.42,0,.63,0,.19,1.75.17,3.52.05,5.29Z"/>
        <path class="cls-7" d="m837,768.03c.6.03,1.2.06,1.79.1.13.68.21,1.35-.02,2.03-.59-.04-1.18-.07-1.76-.11-.11-.67-.25-1.34,0-2.01Z"/>
        <path class="cls-3" d="m837.01,726.18c.58.04,1.16.08,1.73.12.1.56.19,1.12,0,1.69-.59.07-1.18.15-1.77.22-.14-.68-.13-1.35.04-2.03Z"/>
        <path class="cls-7" d="m838.84,791.1c-1.49-.29-.97-1.53-1.28-2.54.49.09.89.16,1.29.23,0,.77,0,1.54,0,2.31Z"/>
        <path class="cls-10" d="m838.73,719.66c-.59.04-1.18.08-1.77.12-.11-.45-.17-.9.02-1.35.59-.08,1.17-.15,1.76-.23,0,.32.02.65.02.97-.19.15-.35.29-.05.48h.02Z"/>
        <path class="cls-3" d="m463.1,797.31c.06-.77.13-1.53.19-2.3.16-.01.32-.02.48-.03.24.77.47,1.53.71,2.3-.46,0-.92.02-1.38.03Z"/>
        <path class="cls-3" d="m838.74,718.2c-.59.08-1.17.15-1.76.23-.1-.57-.15-1.14.02-1.7.47.5,1.07.57,1.71.46l.02,1.01Z"/>
        <path class="cls-3" d="m362.06,807.08c-.97,1.12-1.51,1.08-2.1-.17.7.06,1.4.11,2.1.17Z"/>
        <path class="cls-7" d="m783.01,798.64c.04-.43-.32-1.12.43-1.16.69-.04.48.7.62,1.12-.35.01-.7.03-1.05.04Z"/>
        <path class="cls-7" d="m844.55,796.75c.39-.02.79-.04,1.18-.06-.01.42-.02.85-.04,1.27-.37.04-.74.08-1.11.13-.01-.45-.03-.89-.04-1.34Z"/>
        <path class="cls-3" d="m439.27,795.33c-.59,1.04-1.17,1.15-1.73-.01.58,0,1.15,0,1.73.01Z"/>
        <path class="cls-7" d="m433.95,804.34c-.67.06-1.43.64-1.9-.33.65,0,1.42-.57,1.9.33Z"/>
        <path class="cls-7" d="m801.24,805.37c0-.39-.29-.98.32-1.04.77-.08.53.59.55,1.03-.29,0-.58.01-.88.02Z"/>
        <path class="cls-3" d="m443.72,797.58c0-.33-.03-.73.41-.78.57-.07.55.41.63.77-.35,0-.69,0-1.04,0Z"/>
        <path class="cls-5" d="m251.44,793.01c-.5,0-.99,0-1.49,0"/>
        <path class="cls-10" d="m844.46,735.02c.39-.02.78-.04,1.17-.06-.01.2-.03.39-.04.59-.5.11-.74.45-.83.91-.61-.38-.28-.95-.29-1.45Z"/>
        <path class="cls-3" d="m438.99,797.59c.55-.41,1.12-1.3,1.62.03-.54-.01-1.08-.02-1.62-.03Z"/>
        <path class="cls-10" d="m838.72,717.19c-.65.11-1.24.03-1.71-.46,0,0,0-.02,0-.02.58-.04,1.17-.08,1.75-.13-.01.2-.03.41-.04.61Z"/>
        <path class="cls-10" d="m838.7,709.1c-.31,0-.81.18-.85-.19-.06-.56.54-.35.87-.44,0,.21-.01.42-.02.63Z"/>
        <path class="cls-7" d="m389,801.14c.34-.8.7-.77,1.08-.04-.36.01-.72.02-1.08.04Z"/>
        <path class="cls-3" d="m443.78,795.26c-.05.33.3.9-.27.91-.5.01-.28-.59-.35-.92.21,0,.42.01.63.02Z"/>
        <path class="cls-7" d="m386.54,799.51c-.5.15-1,.3-1.23-.38.49-.11.98-.23,1.23.38Z"/>
        <path class="cls-10" d="m845.56,719.03c-.37.05-.73.1-1.1.15-.01-.22-.02-.45-.03-.67.39-.02.78-.05,1.17-.07-.01.2-.03.4-.04.6Z"/>
        <path class="cls-10" d="m838.78,721.96c-.26-.03-.66.08-.71-.25-.08-.48.41-.38.69-.48,0,.24.01.48.02.72Z"/>
        <path class="cls-7" d="m460.1,798.34c-.01.31.19.82-.19.85-.58.04-.34-.55-.42-.88.2,0,.41.02.61.03Z"/>
        <path class="cls-7" d="m791.61,800.73c.02-.33.07-.68.5-.66.42.02.45.38.47.7-.32-.01-.64-.02-.97-.04Z"/>
        <path class="cls-3" d="m844.75,736.47c.09-.46.33-.8.83-.91,0,.34,0,.68,0,1.02-.26-.02-.52-.05-.78-.07,0,0-.05-.03-.05-.03Z"/>
        <path class="cls-3" d="m436.16,795.38c-.08.17-.12.46-.24.49-.35.09-.38-.23-.45-.46.23-.01.46-.02.69-.03Z"/>
        <path class="cls-7" d="m385.89,801.17c.24-.69.48-.57.74-.02l-.74.02Z"/>
        <path class="cls-10" d="m316.61,795.36c-.25.68-.5.58-.75,0,.25,0,.5,0,.75,0Z"/>
        <path class="cls-10" d="m319.04,795.39c-.25.67-.5.58-.75,0,.25,0,.5,0,.75,0Z"/>
        <path class="cls-3" d="m747.07,796.68c.03-.24-.1-.61.3-.62.37,0,.31.37.37.61h-.67Z"/>
        <path class="cls-3" d="m741.55,796.84c.02-.22.01-.48.31-.49.28-.01.32.25.38.46-.23.01-.46.02-.69.03Z"/>
        <path class="cls-3" d="m476.59,797.1c.03-.24-.07-.59.32-.58.35,0,.3.36.37.6-.23,0-.46-.01-.69-.02Z"/>
        <path class="cls-10" d="m833.92,696.21c.19.07.51.12.53.23.07.36-.28.36-.53.44,0-.22,0-.44,0-.67Z"/>
        <path class="cls-3" d="m465.24,795c-.03.23.05.58-.34.55-.33-.02-.29-.36-.36-.6.23.01.46.03.7.04Z"/>
        <path class="cls-7" d="m339.95,801.89c-.27.72-.51.51-.74-.02.25,0,.49.01.74.02Z"/>
        <path class="cls-3" d="m451.39,795.17c-.02.22-.02.48-.31.49-.28.01-.32-.25-.38-.46.23-.01.46-.02.69-.03Z"/>
        <path class="cls-3" d="m446.91,795.23c-.26.55-.51.43-.75-.01.25,0,.5,0,.75.01Z"/>
        <path class="cls-10" d="m845.56,730.94c-.33.04-.66.07-.99.11,0,0,.04-.05.03-.05.31-.09.63-.19.95-.28-.02.08-.02.15,0,.22Z"/>
        <path class="cls-3" d="m744.67,796.76c.03-.1.07-.2.1-.3.04.1.09.19.13.29,0,0-.11.05-.11.05l-.12-.03Z"/>
        <path class="cls-3" d="m453.13,795.15c-.15.34-.27.2-.39-.02.13,0,.26.01.39.02Z"/>
        <path class="cls-3" d="m437.47,797.67c.15-.36.27-.23.39.02l-.39-.02Z"/>
        <path class="cls-10" d="m834.28,698.16c.08-.05.16-.11.24-.16-.07.07-.15.14-.22.2,0,0-.02-.04-.02-.04Z"/>
        <path class="cls-3" d="m838.71,719.65c-.3-.19-.14-.34.05-.48-.02.16-.03.32-.05.48Z"/>
        <path class="cls-3" d="m448.96,795.18l-.12.29c-.05-.09-.09-.19-.14-.28.08-.06.17-.07.25-.01Z"/>
        <path class="cls-7" d="m388.33,799.11c0,.09-.02.19-.02.28-.03-.09-.05-.19-.08-.28,0,0,.1,0,.1,0Z"/>
        <path class="cls-3" d="m833.91,714.42c.1.04.19.08.29.13-.09.05-.18.1-.27.15-.07-.09-.07-.18-.01-.28Z"/>
        <path class="cls-3" d="m835.61,713.2c-.1-.04-.19-.08-.29-.12.09-.05.19-.09.28-.14.06.09.07.17,0,.27Z"/>
        <path class="cls-8" d="m846.86,203.45c.25.1.59.06.66.4,0,.04-.06.12-.09.13-.37.05-.43-.29-.61-.47,0,0,.04-.06.04-.06Z"/>
        <path class="cls-7" d="m756.56,798.71c-.17-.11-.29-.19-.41-.26.09-.11.16-.29.27-.31.11-.02.25.11.38.17-.07.12-.14.24-.24.4Z"/>
        <path class="cls-7" d="m781.41,797.48s.01-.1.03-.11c.04,0,.09.01.13.02,0,.04-.02.07-.03.11l-.13-.03Z"/>
        <path class="cls-7" d="m790.82,804.74c-.21.07-.36.14-.51.16-.09,0-.19-.07-.29-.12.15-.06.29-.15.44-.17.09-.02.19.07.35.13Z"/>
        <path class="cls-3" d="m760.48,795.38c-.11.05-.2.1-.3.11-.02,0-.06-.12-.1-.19.05-.02.11-.07.15-.05.08.02.16.08.25.13Z"/>
      </g>
      <g>
        <path class="cls-15" d="m663.42,14.38c1.83,1.01.28,7.5,0,11.42-.28,3.92-7.56,3.55-8.78,3.55s-12.23.28-13.73.37c-1.49.09-74.49-.28-74.49-.28,0,0-14.01-.65-20.17-.84s-8.78,2.05-14.29,5.23-12.98,3.06-16.1,2.99c-3.12-.07-9.43-2.39-12.98-5.95-3.55-3.55-11.46-3.84-11.46-3.84l-72.61-.37s-29.49-.88-36.69-1.58c-7.19-.7-5.22-11.49-5.22-11.49,0,0,.25-1.33,4.37-1.17s279.95.75,282.15,1.96Zm-291.99,5.1s-1.97,10.79,5.22,11.49c7.19.7,42.15,2.41,42.15,2.41l72.61.37s7.91.29,11.46,3.84c3.55,3.55,9.86,5.88,12.98,5.95s10.59.19,16.1-2.99c5.51-3.18,8.12-5.42,14.29-5.23,6.16.19,20.17.84,20.17.84,0,0,73,.37,74.49.28s16.98-.46,18.19-.51c4.89-.19,9.65-2.18,9.98-5.33.41-3.91,1.23-16.11.98-18.79,0,0-.11-3.66-6.21-5.03L379.77,2.3s-7.93-.74-8.18,5.03c-.25,5.77,0,4.62-.15,12.14Z"/>
        <path class="cls-14" d="m375.12,2.86s2.95-3.09,2.67,1.89,0,8.93-1.12,11.39h287.58s-2.27-1.89-2.06-5.06.39-6.67,2.06-6.13c0,0-.42-2.5-3.92-2.67-3.5-.17-282.02-1.84-282.02-1.84,0,0-1.35-.04-3.19,2.43Z"/>
      </g>
    </g>
  </g>
</svg>